<svg xmlns="http://www.w3.org/2000/svg" xmlns:xlink="http://www.w3.org/1999/xlink" width="500" zoomAndPan="magnify" viewBox="0 0 375 374.999991" height="500" preserveAspectRatio="xMidYMid meet" version="1.0"><defs><g/><clipPath id="id1"><path d="M 98.992188 203.734375 L 119.238281 203.734375 L 119.238281 223.984375 L 98.992188 223.984375 Z M 98.992188 203.734375 " clip-rule="nonzero"/></clipPath><clipPath id="id2"><path d="M 255.546875 203.734375 L 275.796875 203.734375 L 275.796875 223.984375 L 255.546875 223.984375 Z M 255.546875 203.734375 " clip-rule="nonzero"/></clipPath><clipPath id="id3"><path d="M 136.175781 161.140625 L 181.699219 161.140625 L 181.699219 224.132812 L 136.175781 224.132812 Z M 136.175781 161.140625 " clip-rule="nonzero"/></clipPath><clipPath id="id4"><path d="M 193.28125 161.140625 L 238.820312 161.140625 L 238.820312 224.132812 L 193.28125 224.132812 Z M 193.28125 161.140625 " clip-rule="nonzero"/></clipPath></defs><g clip-path="url(#id1)"><path fill="#f6aa1c" d="M 113.328125 213.191406 L 118.742188 210.726562 L 112.914062 211.921875 L 117.304688 207.90625 L 112.128906 210.839844 L 115.066406 205.664062 L 111.050781 210.058594 L 112.242188 204.226562 L 109.78125 209.644531 L 109.113281 203.730469 L 108.449219 209.644531 L 105.988281 204.226562 L 107.179688 210.058594 L 103.164062 205.664062 L 106.101562 210.839844 L 100.925781 207.90625 L 105.316406 211.921875 L 99.488281 210.726562 L 104.902344 213.191406 L 98.992188 213.855469 L 104.902344 214.523438 L 99.488281 216.984375 L 105.316406 215.792969 L 100.925781 219.808594 L 106.101562 216.871094 L 103.164062 222.046875 L 107.179688 217.65625 L 105.988281 223.484375 L 108.449219 218.066406 L 109.113281 223.980469 L 109.78125 218.066406 L 112.242188 223.484375 L 111.050781 217.65625 L 115.066406 222.046875 L 112.128906 216.871094 L 117.304688 219.808594 L 112.914062 215.792969 L 118.742188 216.984375 L 113.328125 214.523438 L 119.238281 213.855469 L 113.328125 213.191406 " fill-opacity="1" fill-rule="nonzero"/></g><g clip-path="url(#id2)"><path fill="#f6aa1c" d="M 269.882812 213.191406 L 275.300781 210.726562 L 269.472656 211.921875 L 273.863281 207.90625 L 268.6875 210.839844 L 271.625 205.664062 L 267.609375 210.058594 L 268.800781 204.226562 L 266.339844 209.644531 L 265.671875 203.730469 L 265.007812 209.644531 L 262.546875 204.226562 L 263.738281 210.058594 L 259.722656 205.664062 L 262.660156 210.839844 L 257.484375 207.90625 L 261.875 211.921875 L 256.042969 210.726562 L 261.460938 213.191406 L 255.550781 213.855469 L 261.460938 214.523438 L 256.042969 216.984375 L 261.875 215.792969 L 257.484375 219.808594 L 262.660156 216.871094 L 259.722656 222.046875 L 263.738281 217.65625 L 262.546875 223.484375 L 265.007812 218.066406 L 265.671875 223.980469 L 266.339844 218.066406 L 268.800781 223.484375 L 267.609375 217.65625 L 271.625 222.046875 L 268.6875 216.871094 L 273.863281 219.808594 L 269.472656 215.792969 L 275.300781 216.984375 L 269.882812 214.523438 L 275.796875 213.855469 L 269.882812 213.191406 " fill-opacity="1" fill-rule="nonzero"/></g><g clip-path="url(#id3)"><path fill="#f6aa1c" d="M 136.195312 179.007812 C 136.195312 177.9375 136.585938 177.222656 137.535156 176.734375 C 147.15625 171.785156 156.773438 166.832031 166.375 161.847656 C 167.695312 161.160156 169.050781 161.011719 170.457031 161.242188 C 174.070312 161.824219 177.132812 163.511719 179.753906 166.042969 C 181.125 167.367188 181.753906 168.96875 181.710938 170.875 C 181.648438 173.371094 181.386719 198.765625 181.378906 204.136719 C 181.375 205.3125 180.949219 206.164062 180 206.800781 C 179.753906 206.960938 179.503906 207.125 179.253906 207.28125 C 175 209.917969 157.316406 220.953125 152.714844 223.804688 C 151.867188 224.328125 150.941406 224.179688 150.078125 223.707031 C 149.363281 223.316406 149.238281 222.660156 149.238281 221.910156 C 149.246094 210.136719 149.253906 198.355469 149.226562 186.582031 C 149.222656 185.46875 149.652344 184.785156 150.585938 184.265625 C 158.074219 180.097656 175.601562 170.285156 176.949219 169.527344 C 176.820312 169.355469 176.75 169.246094 176.671875 169.148438 C 176.402344 168.804688 176.113281 168.5 175.804688 168.21875 C 172.890625 169.820312 169.972656 171.417969 167.058594 173.015625 C 161.539062 176.042969 156.019531 179.070312 150.503906 182.09375 C 149.339844 182.734375 148.171875 183.371094 147.007812 184.011719 C 147.039062 188.535156 147.074219 193.0625 147.105469 197.585938 C 147.15625 204.914062 147.210938 212.242188 147.261719 219.570312 C 147.261719 219.667969 147.261719 219.765625 147.261719 219.863281 L 146.101562 219.863281 C 146.082031 216.832031 146.058594 213.800781 146.035156 210.769531 C 145.984375 203.441406 145.929688 196.113281 145.878906 188.785156 C 145.867188 187.078125 145.855469 185.371094 145.839844 183.667969 C 145.839844 183.46875 145.953125 183.261719 146.128906 183.164062 C 149.570312 181.277344 153.011719 179.390625 156.453125 177.503906 C 161.96875 174.476562 167.488281 171.449219 173.007812 168.425781 C 173.605469 168.097656 174.203125 167.769531 174.804688 167.4375 C 174.234375 167.058594 173.625 166.738281 173 166.453125 C 170.324219 167.960938 167.652344 169.46875 164.976562 170.972656 C 159.316406 174.164062 153.660156 177.355469 148 180.546875 L 144.363281 182.597656 C 144.394531 187.386719 144.425781 192.171875 144.457031 196.960938 L 144.605469 219.089844 L 143.445312 219.089844 L 143.390625 210.90625 C 143.335938 203.136719 143.285156 195.371094 143.234375 187.601562 C 143.21875 185.820312 143.207031 184.039062 143.195312 182.257812 C 143.195312 182.054688 143.308594 181.855469 143.484375 181.753906 C 147.03125 179.757812 150.574219 177.757812 154.121094 175.757812 C 159.777344 172.566406 165.4375 169.378906 171.097656 166.183594 C 171.277344 166.085938 171.453125 165.984375 171.636719 165.882812 C 170.542969 165.511719 169.441406 165.65625 168.40625 166.214844 C 161.886719 169.722656 144.785156 178.933594 142.722656 179.972656 C 141.789062 180.441406 141.761719 180.386719 141.761719 181.441406 C 141.761719 192.585938 141.761719 203.734375 141.761719 214.882812 C 141.761719 216.46875 141.269531 217.09375 139.738281 217.460938 C 137.75 217.945312 136.164062 216.738281 136.175781 214.726562 C 136.234375 202.820312 136.214844 190.914062 136.195312 179.007812 " fill-opacity="1" fill-rule="nonzero"/></g><g clip-path="url(#id4)"><path fill="#f6aa1c" d="M 238.800781 179.007812 C 238.800781 177.9375 238.40625 177.222656 237.457031 176.734375 C 227.839844 171.785156 218.21875 166.832031 208.621094 161.847656 C 207.300781 161.160156 205.945312 161.011719 204.539062 161.242188 C 200.925781 161.824219 197.859375 163.511719 195.238281 166.042969 C 193.871094 167.367188 193.238281 168.96875 193.285156 170.875 C 193.34375 173.371094 193.609375 198.765625 193.617188 204.136719 C 193.621094 205.3125 194.046875 206.164062 194.996094 206.800781 C 195.242188 206.960938 195.488281 207.125 195.742188 207.28125 C 199.996094 209.917969 217.675781 220.953125 222.28125 223.804688 C 223.128906 224.328125 224.054688 224.179688 224.917969 223.707031 C 225.632812 223.316406 225.757812 222.660156 225.757812 221.910156 C 225.75 210.136719 225.738281 198.355469 225.769531 186.582031 C 225.769531 185.46875 225.34375 184.785156 224.40625 184.265625 C 216.921875 180.097656 199.394531 170.285156 198.046875 169.527344 C 198.171875 169.355469 198.246094 169.246094 198.324219 169.148438 C 198.589844 168.804688 198.882812 168.5 199.191406 168.21875 C 202.105469 169.820312 205.023438 171.417969 207.9375 173.015625 C 213.457031 176.042969 218.976562 179.070312 224.492188 182.09375 C 225.65625 182.734375 226.824219 183.371094 227.988281 184.011719 C 227.957031 188.535156 227.921875 193.0625 227.890625 197.585938 C 227.835938 204.914062 227.785156 212.242188 227.734375 219.570312 C 227.730469 219.667969 227.730469 219.765625 227.730469 219.863281 L 228.894531 219.863281 C 228.914062 216.832031 228.9375 213.800781 228.960938 210.769531 C 229.011719 203.441406 229.066406 196.113281 229.117188 188.785156 C 229.128906 187.078125 229.140625 185.371094 229.152344 183.667969 C 229.152344 183.46875 229.042969 183.261719 228.867188 183.164062 C 225.421875 181.277344 221.984375 179.390625 218.542969 177.503906 C 213.027344 174.476562 207.507812 171.449219 201.988281 168.425781 C 201.390625 168.097656 200.792969 167.769531 200.191406 167.4375 C 200.761719 167.058594 201.371094 166.738281 201.996094 166.453125 C 204.671875 167.960938 207.34375 169.46875 210.015625 170.972656 C 215.675781 174.164062 221.335938 177.355469 226.992188 180.546875 L 230.632812 182.597656 C 230.601562 187.386719 230.566406 192.171875 230.539062 196.960938 L 230.390625 219.089844 L 231.550781 219.089844 L 231.605469 210.90625 C 231.660156 203.136719 231.710938 195.371094 231.761719 187.601562 C 231.773438 185.820312 231.785156 184.039062 231.800781 182.257812 C 231.800781 182.054688 231.6875 181.855469 231.511719 181.753906 C 227.964844 179.757812 224.417969 177.757812 220.875 175.757812 C 215.214844 172.566406 209.558594 169.378906 203.898438 166.183594 C 203.71875 166.085938 203.539062 165.984375 203.359375 165.882812 C 204.453125 165.511719 205.554688 165.65625 206.589844 166.214844 C 213.109375 169.722656 230.210938 178.933594 232.273438 179.972656 C 233.203125 180.441406 233.234375 180.386719 233.234375 181.441406 C 233.234375 192.585938 233.234375 203.734375 233.234375 214.882812 C 233.234375 216.46875 233.726562 217.09375 235.257812 217.460938 C 237.242188 217.945312 238.828125 216.738281 238.816406 214.726562 C 238.757812 202.820312 238.78125 190.914062 238.800781 179.007812 " fill-opacity="1" fill-rule="nonzero"/></g><g fill="#bc3908" fill-opacity="1"><g transform="translate(165.655599, 254.465609)"><g><path d="M 1.777344 -0.796875 L 1.777344 -6.804688 L 0.921875 -6.804688 L 0.921875 0 L 4.761719 0 L 4.761719 -0.796875 Z M 1.777344 -0.796875 "/></g></g></g><g fill="#bc3908" fill-opacity="1"><g transform="translate(172.554157, 254.465609)"><g><path d="M 0.921875 0 L 1.777344 0 L 1.777344 -6.804688 L 0.921875 -6.804688 Z M 0.921875 0 "/></g></g></g><g fill="#bc3908" fill-opacity="1"><g transform="translate(177.189166, 254.465609)"><g><path d="M 4.695312 -3.527344 C 5.199219 -3.828125 5.53125 -4.453125 5.53125 -5.0625 C 5.53125 -6.054688 4.722656 -6.804688 3.617188 -6.804688 L 0.921875 -6.804688 L 0.921875 0 L 3.644531 0 C 4.820312 0 5.707031 -0.816406 5.707031 -1.867188 C 5.707031 -2.613281 5.328125 -3.257812 4.695312 -3.527344 Z M 4.65625 -4.949219 C 4.65625 -4.382812 4.207031 -3.925781 3.597656 -3.925781 L 1.769531 -3.925781 L 1.769531 -5.96875 L 3.597656 -5.96875 C 4.1875 -5.96875 4.65625 -5.519531 4.65625 -4.949219 Z M 3.636719 -0.835938 L 1.769531 -0.835938 L 1.769531 -3.089844 L 3.644531 -3.089844 C 4.316406 -3.089844 4.832031 -2.605469 4.832031 -1.964844 C 4.832031 -1.3125 4.316406 -0.835938 3.636719 -0.835938 Z M 3.636719 -0.835938 "/></g></g></g><g fill="#bc3908" fill-opacity="1"><g transform="translate(185.379785, 254.465609)"><g><path d="M 4.890625 0 L 5.851562 0 L 4.21875 -2.761719 C 5.113281 -3.011719 5.726562 -3.761719 5.726562 -4.722656 C 5.726562 -5.929688 4.78125 -6.804688 3.507812 -6.804688 L 0.921875 -6.804688 L 0.921875 0 L 1.777344 0 L 1.777344 -2.652344 L 3.324219 -2.652344 Z M 1.777344 -5.988281 L 3.460938 -5.988281 C 4.296875 -5.988281 4.851562 -5.453125 4.851562 -4.722656 C 4.851562 -3.996094 4.296875 -3.46875 3.460938 -3.46875 L 1.777344 -3.46875 Z M 1.777344 -5.988281 "/></g></g></g><g fill="#bc3908" fill-opacity="1"><g transform="translate(193.560699, 254.465609)"><g><path d="M 4.023438 0.117188 C 6.085938 0.117188 7.582031 -1.390625 7.582031 -3.390625 C 7.582031 -5.40625 6.085938 -6.910156 4.023438 -6.910156 C 1.964844 -6.910156 0.457031 -5.40625 0.457031 -3.390625 C 0.457031 -1.390625 1.964844 0.117188 4.023438 0.117188 Z M 4.023438 -0.71875 C 2.480469 -0.71875 1.332031 -1.875 1.332031 -3.390625 C 1.332031 -4.917969 2.480469 -6.074219 4.023438 -6.074219 C 5.570312 -6.074219 6.714844 -4.929688 6.714844 -3.390625 C 6.714844 -1.867188 5.570312 -0.71875 4.023438 -0.71875 Z M 4.023438 -0.71875 "/></g></g></g><g fill="#bc3908" fill-opacity="1"><g transform="translate(203.538839, 254.465609)"><g><path d="M 2.953125 0.0859375 C 4.304688 0.0859375 5.355469 -0.640625 5.355469 -1.925781 C 5.355469 -3.34375 4.152344 -3.625 3.082031 -3.886719 C 2.207031 -4.09375 1.417969 -4.285156 1.417969 -5.023438 C 1.417969 -5.675781 2.042969 -6.066406 2.867188 -6.066406 C 3.695312 -6.066406 4.316406 -5.628906 4.316406 -4.871094 L 5.160156 -4.871094 C 5.160156 -6.105469 4.296875 -6.882812 2.886719 -6.882812 C 1.476562 -6.882812 0.574219 -6.171875 0.574219 -4.996094 C 0.574219 -3.636719 1.730469 -3.351562 2.78125 -3.109375 C 3.664062 -2.898438 4.472656 -2.710938 4.472656 -1.914062 C 4.472656 -1.195312 3.800781 -0.75 2.945312 -0.75 C 2.003906 -0.75 1.3125 -1.246094 1.3125 -2.089844 L 0.4375 -2.089844 C 0.4375 -0.75 1.457031 0.0859375 2.953125 0.0859375 Z M 2.953125 0.0859375 "/></g></g></g><g fill="#bc3908" fill-opacity="1"><g transform="translate(141.89837, 138.28314)"><g><path d="M 2.890625 -9.878906 L 2.8125 -9.839844 C 2.5 -9.6875 2.179688 -9.554688 1.894531 -9.375 C 1.597656 -9.195312 1.269531 -9.078125 0.976562 -8.910156 C 0.679688 -8.730469 0.339844 -8.609375 0.0390625 -8.4375 C -0.167969 -8.320312 -0.398438 -8.222656 -0.605469 -8.105469 C -1.203125 -7.773438 -1.839844 -7.523438 -2.4375 -7.191406 C -2.523438 -7.148438 -2.582031 -7.144531 -2.65625 -7.070312 C -2.660156 -7.03125 -2.703125 -7 -2.714844 -6.96875 C -2.640625 -6.847656 -2.25 -6.148438 -1.816406 -5.226562 C -1.703125 -4.945312 -1.570312 -4.671875 -1.445312 -4.394531 C -1.308594 -4.125 -1.160156 -3.847656 -1.027344 -3.574219 C -0.898438 -3.3125 -0.753906 -3.070312 -0.605469 -2.816406 C -0.503906 -2.660156 -0.433594 -2.492188 -0.351562 -2.328125 C -0.25 -2.121094 -0.136719 -1.914062 -0.0585938 -1.710938 C 0.0234375 -1.496094 0.113281 -1.3125 0.230469 -1.128906 C 0.382812 -0.863281 0.53125 -0.589844 0.644531 -0.304688 C 0.664062 -0.269531 0.90625 -0.4375 0.996094 -0.480469 C 1.246094 -0.605469 1.5 -0.703125 1.753906 -0.804688 C 1.972656 -0.898438 2.753906 -1.347656 2.871094 -1.402344 C 3.414062 -1.671875 3.960938 -1.929688 4.488281 -2.214844 C 4.898438 -2.429688 5.304688 -2.664062 5.734375 -2.84375 C 6.074219 -2.984375 6.367188 -3.203125 6.703125 -3.355469 C 6.84375 -3.414062 6.871094 -3.523438 6.796875 -3.65625 L 6.4375 -4.382812 C 6.179688 -4.390625 6.03125 -4.195312 5.839844 -4.101562 C 5.519531 -3.941406 5.183594 -3.789062 4.882812 -3.59375 C 4.730469 -3.507812 4.550781 -3.453125 4.421875 -3.351562 C 4.1875 -3.1875 3.9375 -3.078125 3.695312 -2.933594 C 3.507812 -2.828125 3.289062 -2.734375 3.078125 -2.644531 C 2.988281 -2.609375 2.910156 -2.523438 2.804688 -2.542969 C 2.441406 -3.199219 2.054688 -3.839844 1.765625 -4.542969 L 2.484375 -4.898438 C 2.621094 -4.964844 2.757812 -5.03125 2.890625 -5.109375 C 3.234375 -5.292969 3.5625 -5.480469 3.914062 -5.652344 C 4.097656 -5.742188 4.277344 -5.84375 4.460938 -5.933594 C 4.558594 -5.980469 4.578125 -6.089844 4.53125 -6.183594 C 4.417969 -6.394531 4.300781 -6.601562 4.199219 -6.832031 C 4.144531 -6.972656 4.027344 -7.011719 3.886719 -6.953125 C 3.71875 -6.882812 3.558594 -6.792969 3.394531 -6.699219 C 3.0625 -6.523438 2.734375 -6.324219 2.394531 -6.15625 C 2.234375 -6.089844 2.074219 -6.023438 1.933594 -5.917969 C 1.726562 -5.777344 1.476562 -5.742188 1.269531 -5.601562 C 0.910156 -6.160156 0.660156 -6.835938 0.355469 -7.410156 C 1.402344 -8.046875 2.542969 -8.527344 3.632812 -9.085938 C 3.617188 -9.140625 3.613281 -9.199219 3.578125 -9.242188 C 3.472656 -9.40625 3.367188 -9.574219 3.304688 -9.769531 C 3.234375 -9.964844 3.074219 -9.996094 2.890625 -9.878906 Z M 2.890625 -9.878906 "/></g></g></g><g fill="#bc3908" fill-opacity="1"><g transform="translate(153.703878, 132.887613)"><g><path d="M -0.265625 -4.09375 C -0.398438 -4.046875 -0.542969 -4.007812 -0.644531 -3.867188 C -0.539062 -3.527344 -0.390625 -3.199219 -0.300781 -2.84375 C 0.0664062 -3.039062 1.433594 -3.433594 2.535156 -3.851562 C 3.125 -4.078125 3.589844 -4.25 3.632812 -4.289062 C 3.484375 -4.59375 3.410156 -4.933594 3.292969 -5.238281 C 3.164062 -5.285156 3.070312 -5.25 2.980469 -5.210938 C 2.742188 -5.105469 2.503906 -5 2.257812 -4.921875 C 2.097656 -4.878906 1.933594 -4.855469 1.789062 -4.785156 C 1.453125 -4.632812 1.113281 -4.515625 0.757812 -4.414062 C 0.414062 -4.316406 0.0742188 -4.210938 -0.265625 -4.09375 Z M -0.265625 -4.09375 "/></g></g></g><g fill="#bc3908" fill-opacity="1"><g transform="translate(163.639241, 129.686891)"><g><path d="M 1.460938 -8.214844 C 1.011719 -8.085938 0.628906 -7.859375 0.265625 -7.589844 C 0.09375 -7.464844 -0.0664062 -7.332031 -0.183594 -7.152344 C -0.488281 -6.675781 -0.613281 -6.160156 -0.523438 -5.59375 C -0.425781 -4.992188 -0.136719 -4.480469 0.390625 -4.195312 C 0.804688 -3.964844 1.175781 -3.632812 1.679688 -3.554688 C 1.867188 -3.515625 2.042969 -3.421875 2.222656 -3.359375 C 2.527344 -3.273438 2.839844 -3.164062 3.140625 -3.050781 C 3.433594 -2.9375 3.726562 -2.8125 4.011719 -2.664062 C 4.238281 -2.535156 4.3125 -2.085938 4.035156 -1.945312 C 3.617188 -1.722656 3.183594 -1.628906 2.726562 -1.6875 C 2.488281 -1.65625 2.175781 -1.777344 1.90625 -1.851562 C 1.589844 -1.929688 1.238281 -2.105469 0.984375 -2.316406 C 0.917969 -2.371094 0.820312 -2.40625 0.757812 -2.433594 C 0.597656 -2.410156 0.550781 -2.3125 0.503906 -2.226562 C 0.425781 -2.074219 0.359375 -1.929688 0.300781 -1.78125 C 0.257812 -1.683594 0.113281 -1.421875 0.160156 -1.351562 C 0.273438 -1.199219 0.574219 -1.078125 0.738281 -0.992188 C 1.292969 -0.679688 1.886719 -0.542969 2.511719 -0.519531 C 3.257812 -0.503906 3.980469 -0.660156 4.679688 -0.910156 C 5.285156 -1.121094 5.828125 -1.4375 6.242188 -1.9375 C 6.390625 -2.113281 6.527344 -2.308594 6.566406 -2.527344 C 6.613281 -2.871094 6.640625 -3.207031 6.5625 -3.570312 C 6.410156 -4.179688 6.078125 -4.636719 5.542969 -4.953125 C 5.195312 -5.179688 4.796875 -5.292969 4.421875 -5.476562 C 4.128906 -5.613281 3.820312 -5.699219 3.515625 -5.824219 C 3.191406 -5.953125 2.855469 -6.070312 2.523438 -6.207031 C 2.402344 -6.257812 2.285156 -6.34375 2.195312 -6.445312 C 1.976562 -6.6875 2.019531 -6.960938 2.285156 -7.121094 C 2.371094 -7.171875 2.453125 -7.210938 2.546875 -7.230469 C 2.839844 -7.316406 3.121094 -7.34375 3.417969 -7.308594 C 3.792969 -7.269531 4.121094 -7.128906 4.34375 -6.8125 C 4.390625 -6.753906 4.425781 -6.683594 4.535156 -6.652344 C 4.882812 -6.738281 5.277344 -6.746094 5.636719 -6.890625 C 5.621094 -7.054688 5.578125 -7.15625 5.511719 -7.261719 C 5.417969 -7.386719 5.296875 -7.484375 5.195312 -7.59375 C 4.738281 -8.070312 4.207031 -8.378906 3.539062 -8.441406 C 2.835938 -8.511719 2.148438 -8.417969 1.460938 -8.214844 Z M 1.460938 -8.214844 "/></g></g></g><g fill="#bc3908" fill-opacity="1"><g transform="translate(175.863095, 127.323155)"><g><path d="M 4.683594 -8.054688 C 4.433594 -8.058594 4.183594 -8.03125 3.9375 -7.992188 C 3.734375 -7.957031 3.519531 -7.921875 3.316406 -7.851562 C 3.125 -7.796875 2.882812 -7.703125 2.757812 -7.648438 C 2.429688 -7.53125 2.285156 -7.421875 1.96875 -7.28125 C 1.578125 -7.089844 1.285156 -6.777344 1.050781 -6.433594 C 0.882812 -6.207031 0.738281 -5.945312 0.601562 -5.6875 C 0.421875 -5.316406 0.316406 -4.941406 0.238281 -4.542969 C 0.191406 -4.289062 0.226562 -3.285156 0.308594 -3.0625 C 0.414062 -2.777344 0.667969 -2.121094 0.847656 -1.871094 C 0.953125 -1.726562 1.0625 -1.570312 1.199219 -1.460938 C 1.421875 -1.269531 1.558594 -1.019531 1.828125 -0.886719 C 1.960938 -0.820312 2.097656 -0.742188 2.222656 -0.652344 C 2.429688 -0.515625 2.679688 -0.492188 2.914062 -0.398438 C 3.183594 -0.277344 3.488281 -0.285156 3.773438 -0.230469 C 4.070312 -0.1875 4.371094 -0.207031 4.667969 -0.183594 C 4.839844 -0.175781 5.011719 -0.195312 5.1875 -0.210938 C 5.464844 -0.230469 5.574219 -0.246094 5.871094 -0.320312 C 6.140625 -0.382812 6.421875 -0.402344 6.683594 -0.519531 C 6.894531 -0.621094 7.105469 -0.710938 7.289062 -0.84375 C 7.625 -1.0625 7.941406 -1.300781 8.167969 -1.644531 C 8.367188 -1.929688 8.53125 -2.234375 8.660156 -2.558594 C 8.757812 -2.824219 8.828125 -3.113281 8.882812 -3.398438 C 8.988281 -3.914062 9.015625 -4.425781 8.917969 -4.921875 C 8.894531 -5.277344 8.765625 -5.5625 8.65625 -5.855469 C 8.507812 -6.28125 8.246094 -6.632812 7.917969 -6.933594 C 7.664062 -7.175781 7.367188 -7.375 7.0625 -7.546875 C 6.960938 -7.605469 6.855469 -7.707031 6.757812 -7.734375 C 6.492188 -7.800781 6.253906 -7.949219 5.96875 -7.960938 C 5.742188 -7.976562 5.507812 -8.070312 5.269531 -8.0625 Z M 4.339844 -6.914062 C 4.496094 -6.980469 4.910156 -6.941406 5.019531 -6.820312 C 5.195312 -6.613281 5.296875 -6.394531 5.402344 -6.121094 C 5.601562 -5.753906 5.550781 -5.390625 5.65625 -4.984375 C 5.6875 -4.835938 5.699219 -4.675781 5.710938 -4.523438 C 5.742188 -4.089844 5.78125 -3.671875 5.765625 -3.234375 C 5.753906 -2.800781 5.695312 -2.371094 5.605469 -1.953125 C 5.546875 -1.710938 5.410156 -1.515625 5.214844 -1.371094 C 5.078125 -1.265625 4.90625 -1.265625 4.726562 -1.316406 C 4.417969 -1.394531 4.230469 -1.609375 4.0625 -1.855469 C 3.808594 -2.230469 3.703125 -2.65625 3.585938 -3.082031 C 3.542969 -3.222656 3.53125 -3.382812 3.511719 -3.535156 C 3.472656 -3.769531 3.410156 -4.046875 3.425781 -4.289062 C 3.445312 -4.789062 3.445312 -5.234375 3.5625 -5.71875 C 3.632812 -5.972656 3.679688 -6.226562 3.804688 -6.453125 C 3.902344 -6.644531 4.128906 -6.832031 4.339844 -6.914062 Z M 4.339844 -6.914062 "/></g></g></g><g fill="#bc3908" fill-opacity="1"><g transform="translate(190.458708, 126.701268)"><g><path d="M 5.484375 -7.300781 C 5.28125 -7.316406 5.070312 -7.289062 4.867188 -7.296875 C 4.550781 -7.300781 4.230469 -7.238281 3.921875 -7.167969 C 3.445312 -7.074219 2.996094 -6.894531 2.578125 -6.667969 C 2.460938 -6.601562 2.339844 -6.558594 2.253906 -6.464844 C 2.089844 -6.304688 1.914062 -6.167969 1.769531 -5.984375 C 1.554688 -5.71875 1.335938 -5.453125 1.167969 -5.140625 C 1.117188 -5.046875 1.054688 -4.945312 1.023438 -4.839844 C 0.988281 -4.667969 0.933594 -4.5 0.886719 -4.328125 C 0.824219 -4.117188 0.808594 -3.898438 0.789062 -3.683594 C 0.773438 -3.5 0.804688 -3.324219 0.800781 -3.140625 C 0.792969 -2.921875 0.972656 -2.050781 1.015625 -1.9375 C 1.148438 -1.570312 1.527344 -0.863281 1.734375 -0.726562 C 1.886719 -0.617188 2.015625 -0.476562 2.171875 -0.375 C 2.5625 -0.117188 2.957031 0.109375 3.402344 0.257812 C 3.773438 0.375 4.152344 0.492188 4.566406 0.515625 C 4.867188 0.539062 5.167969 0.605469 5.46875 0.609375 C 5.882812 0.601562 6.289062 0.578125 6.6875 0.480469 C 7.085938 0.382812 7.476562 0.242188 7.859375 0.0976562 C 8.070312 0.0195312 8.253906 -0.0976562 8.457031 -0.191406 C 8.640625 -0.273438 8.660156 -0.414062 8.566406 -0.570312 C 8.46875 -0.710938 8.394531 -0.859375 8.296875 -0.984375 C 8.226562 -1.089844 8.183594 -1.199219 8.113281 -1.292969 C 8.0625 -1.308594 8.003906 -1.292969 7.9375 -1.265625 C 7.753906 -1.136719 7.570312 -1.011719 7.355469 -0.933594 C 6.972656 -0.777344 6.574219 -0.679688 6.179688 -0.625 C 6.046875 -0.605469 5.90625 -0.605469 5.800781 -0.625 C 5.574219 -0.675781 5.347656 -0.695312 5.128906 -0.777344 C 4.863281 -0.875 4.648438 -1.023438 4.421875 -1.183594 C 4.347656 -1.230469 4.277344 -1.292969 4.230469 -1.371094 C 3.996094 -1.714844 3.816406 -2.023438 3.757812 -2.507812 C 3.730469 -2.726562 3.640625 -2.929688 3.785156 -3.886719 C 3.851562 -4.207031 3.992188 -4.5625 4.132812 -4.855469 C 4.25 -5.074219 4.394531 -5.269531 4.574219 -5.441406 C 4.714844 -5.570312 4.816406 -5.734375 4.996094 -5.828125 C 5.15625 -5.914062 5.324219 -5.988281 5.5 -6.027344 C 5.679688 -6.066406 5.820312 -6.097656 6.039062 -6.082031 C 6.277344 -6.0625 6.484375 -5.96875 6.707031 -5.886719 C 7.066406 -5.757812 7.296875 -5.53125 7.410156 -5.164062 C 7.476562 -4.941406 7.488281 -4.929688 7.714844 -4.921875 C 7.757812 -4.929688 7.867188 -4.921875 7.898438 -4.917969 C 8.125 -4.898438 8.285156 -4.855469 8.511719 -4.847656 C 8.597656 -4.839844 8.726562 -4.808594 8.761719 -4.828125 C 8.804688 -4.84375 8.753906 -5.011719 8.75 -5.078125 C 8.730469 -5.273438 8.660156 -5.445312 8.609375 -5.621094 C 8.582031 -5.722656 8.535156 -5.800781 8.488281 -5.890625 C 8.25 -6.292969 7.867188 -6.539062 7.484375 -6.777344 C 6.988281 -7.078125 6.421875 -7.191406 5.839844 -7.25 C 5.722656 -7.269531 5.605469 -7.289062 5.484375 -7.300781 Z M 5.484375 -7.300781 "/></g></g></g><g fill="#bc3908" fill-opacity="1"><g transform="translate(204.353872, 128.285573)"><g><path d="M 5.007812 -6.722656 C 4.796875 -6.734375 4.605469 -6.761719 4.40625 -6.816406 C 4.183594 -6.871094 3.953125 -6.921875 3.714844 -6.957031 C 3.578125 -6.976562 3.4375 -7.003906 3.304688 -7.042969 C 3.136719 -7.089844 2.976562 -7.167969 2.796875 -7.160156 C 2.585938 -7.160156 2.394531 -7.246094 2.175781 -7.257812 C 2.171875 -7.246094 2.101562 -6.808594 2.0625 -6.617188 C 2.027344 -6.449219 1.972656 -6.28125 1.945312 -6.109375 C 1.910156 -5.941406 1.910156 -5.773438 1.886719 -5.601562 C 1.859375 -5.367188 1.785156 -5.125 1.734375 -4.882812 C 1.675781 -4.550781 1.597656 -4.226562 1.53125 -3.894531 C 1.472656 -3.621094 1.394531 -3.359375 1.351562 -3.09375 C 1.261719 -2.601562 1.136719 -2.121094 1.027344 -1.632812 C 0.960938 -1.371094 0.914062 -1.105469 0.878906 -0.824219 C 0.851562 -0.574219 0.765625 -0.328125 0.691406 -0.078125 C 0.671875 0.0195312 0.675781 0.0976562 0.75 0.167969 C 1.078125 0.179688 1.394531 0.269531 1.710938 0.34375 C 1.917969 0.398438 2.113281 0.472656 2.328125 0.507812 C 2.734375 0.582031 3.148438 0.601562 3.5625 0.6875 C 3.660156 0.707031 3.738281 0.632812 3.726562 0.53125 C 3.726562 0.488281 3.722656 0.445312 3.734375 0.402344 C 3.804688 0.0507812 3.890625 -0.296875 3.949219 -0.636719 C 4.015625 -0.957031 4.09375 -1.273438 4.136719 -1.59375 C 4.199219 -2.058594 4.328125 -2.507812 4.433594 -2.960938 C 4.511719 -3.339844 4.601562 -3.722656 4.671875 -4.105469 C 4.710938 -4.339844 4.777344 -4.570312 4.816406 -4.804688 C 4.890625 -5.210938 5.019531 -5.613281 5.082031 -6.023438 C 5.101562 -6.171875 5.132812 -6.332031 5.175781 -6.476562 C 5.222656 -6.644531 5.167969 -6.699219 5.007812 -6.722656 Z M 5.007812 -6.722656 "/></g></g></g><g fill="#bc3908" fill-opacity="1"><g transform="translate(213.520824, 130.373418)"><g><path d="M 7.425781 -5.582031 C 7.136719 -5.675781 6.84375 -5.753906 6.566406 -5.847656 C 6.308594 -5.933594 6.0625 -6.007812 5.816406 -6.125 C 5.707031 -6.175781 5.585938 -6.191406 5.480469 -6.214844 C 5.191406 -5.902344 4.960938 -5.566406 4.691406 -5.273438 C 4.398438 -4.949219 4.171875 -4.578125 3.851562 -4.277344 C 3.617188 -4.058594 3.472656 -3.765625 3.265625 -3.523438 C 3.121094 -3.367188 3.007812 -3.175781 2.867188 -3.03125 C 2.554688 -2.714844 2.265625 -2.367188 1.96875 -2.03125 C 1.820312 -1.863281 1.703125 -1.6875 1.546875 -1.535156 C 1.316406 -1.316406 1.125 -1.058594 0.9375 -0.8125 C 0.765625 -0.574219 0.550781 -0.375 0.359375 -0.152344 C 0.28125 -0.0546875 0.28125 0.015625 0.296875 0.101562 C 0.617188 0.199219 0.933594 0.28125 1.289062 0.414062 C 1.449219 0.285156 1.582031 0.0546875 1.757812 -0.125 C 1.949219 -0.324219 2.113281 -0.53125 2.300781 -0.753906 C 3.167969 -0.402344 4.089844 -0.226562 4.953125 0.15625 C 4.960938 0.675781 5 1.203125 5 1.714844 C 5.078125 1.789062 5.179688 1.753906 5.25 1.789062 C 5.714844 1.960938 6.191406 2.109375 6.675781 2.238281 C 6.980469 2.320312 7.261719 2.460938 7.578125 2.511719 C 7.675781 2.519531 7.777344 2.625 7.894531 2.515625 C 7.699219 -0.148438 7.738281 -2.820312 7.523438 -5.5 C 7.507812 -5.519531 7.464844 -5.566406 7.425781 -5.582031 Z M 4.898438 -3.863281 C 4.933594 -2.914062 4.90625 -1.960938 4.9375 -1.003906 C 4.285156 -1.203125 3.644531 -1.371094 3.03125 -1.625 C 3.664062 -2.347656 4.214844 -3.15625 4.898438 -3.863281 Z M 4.898438 -3.863281 "/></g></g></g><g fill="#bc3908" fill-opacity="1"><g transform="translate(226.167049, 135.056081)"><g><path d="M 6.492188 -5.234375 C 6.324219 -5.28125 6.203125 -5.402344 6.046875 -5.457031 C 5.742188 -5.570312 5.433594 -5.703125 5.132812 -5.851562 C 4.867188 -5.996094 4.574219 -6.09375 4.308594 -6.261719 C 4.203125 -6.316406 4.09375 -6.394531 3.976562 -6.402344 C 3.871094 -6.382812 3.636719 -5.738281 3.515625 -5.496094 C 3.453125 -5.347656 3.332031 -5.226562 3.253906 -5.070312 C 3.136719 -4.8125 3.011719 -4.5625 2.910156 -4.285156 C 2.726562 -3.820312 2.445312 -3.402344 2.222656 -2.957031 C 2.09375 -2.671875 1.9375 -2.386719 1.820312 -2.09375 C 1.703125 -1.765625 1.5 -1.480469 1.375 -1.15625 C 1.210938 -0.726562 0.972656 -0.324219 0.765625 0.0898438 C 0.71875 0.1875 0.710938 0.292969 0.738281 0.390625 C 1.113281 0.578125 1.484375 0.789062 1.867188 0.941406 C 2.34375 1.144531 2.800781 1.394531 3.269531 1.617188 C 3.753906 1.835938 4.222656 2.09375 4.707031 2.308594 C 5.054688 2.460938 5.378906 2.65625 5.71875 2.800781 C 5.859375 2.859375 5.957031 2.980469 6.125 2.980469 C 6.359375 2.902344 6.363281 2.652344 6.503906 2.441406 L 6.710938 2.050781 C 6.710938 1.976562 6.660156 1.929688 6.597656 1.910156 C 6.476562 1.863281 6.34375 1.820312 6.234375 1.742188 C 6.035156 1.605469 5.789062 1.566406 5.582031 1.453125 C 5.429688 1.363281 5.265625 1.28125 5.105469 1.214844 C 4.898438 1.121094 4.691406 1.03125 4.484375 0.929688 L 3.847656 0.609375 C 4.652344 -1.347656 5.609375 -3.21875 6.621094 -5.050781 C 6.574219 -5.132812 6.546875 -5.21875 6.492188 -5.234375 Z M 6.492188 -5.234375 "/></g></g></g></svg>